<?xml version="1.0" standalone="no"?>
<!DOCTYPE svg PUBLIC "-//W3C//DTD SVG 20010904//EN"
 "http://www.w3.org/TR/2001/REC-SVG-20010904/DTD/svg10.dtd">
<svg version="1.0" xmlns="http://www.w3.org/2000/svg"
 width="300.000000pt" height="300.000000pt" viewBox="0 0 300.000000 300.000000"
 preserveAspectRatio="xMidYMid meet">
<metadata>
Created by potrace 1.10, written by Peter Selinger 2001-2011
</metadata>
<g transform="translate(0.000000,300.000000) scale(0.050000,-0.050000)"
fill="#000000" stroke="none">
<path d="M5890 5945 c7 -95 9 -100 55 -112 41 -10 42 -9 10 15 -44 33 -45 48
-2 45 20 -2 35 16 40 47 5 37 2 42 -12 21 -10 -16 -14 -36 -8 -45 5 -9 1 -16
-10 -16 -10 0 -24 23 -31 50 -17 67 -47 64 -42 -5z"/>
<path d="M5905 5742 c3 -30 11 -35 37 -21 18 10 39 11 46 4 8 -8 8 2 1 21 -19
48 -87 45 -84 -4z"/>
<path d="M2980 5285 c0 -8 -18 -124 -41 -257 l-41 -242 44 -75 45 -75 37 47
c24 31 33 68 27 107 -5 33 -19 161 -32 285 -20 182 -39 289 -39 210z"/>
<path d="M2160 5262 c0 -12 45 -78 100 -146 104 -129 215 -306 310 -495 50
-99 223 -320 251 -321 7 0 33 51 59 113 l47 113 -45 85 c-63 118 -281 386
-377 463 -107 86 -345 215 -345 188z"/>
<path d="M3687 5214 c-259 -137 -488 -400 -676 -776 -127 -253 -125 -243 -63
-343 l46 -76 77 126 c42 69 119 170 171 225 52 55 129 168 170 250 98 195 265
455 359 558 86 96 55 110 -84 36z"/>
<path d="M2081 4526 c68 -63 176 -184 241 -268 92 -122 130 -156 182 -166 91
-17 293 -115 369 -179 86 -73 95 -67 45 32 -201 399 -582 692 -904 695 -54 0
-50 -5 67 -114z"/>
<path d="M3820 4548 c-262 -69 -475 -229 -663 -496 -127 -181 -125 -209 11
-122 60 38 167 88 239 112 116 38 141 56 235 172 58 72 167 180 242 240 176
143 168 156 -64 94z"/>
<path d="M2080 4007 c0 -11 34 -31 75 -45 121 -43 275 -137 385 -235 l102 -93
163 14 c221 18 222 22 42 154 -201 149 -346 203 -570 214 -115 5 -197 2 -197
-9z"/>
<path d="M3505 3989 c-165 -44 -425 -198 -425 -251 0 -109 241 -118 360 -14
102 90 278 198 387 238 40 14 73 33 73 42 0 26 -282 16 -395 -15z"/>
<path d="M2899 3547 c-141 -95 -183 -157 -119 -177 21 -7 79 -52 128 -101 l88
-88 30 45 c16 25 68 72 117 104 48 32 91 61 96 64 15 11 -107 129 -163 158
-71 37 -116 35 -177 -5z"/>
<path d="M3252 3512 l74 -74 47 45 c60 56 41 75 -90 90 l-105 13 74 -74z"/>
<path d="M2606 3544 c-17 -11 -13 -28 15 -64 l37 -50 66 65 65 65 -79 0 c-44
0 -91 -7 -104 -16z"/>
<path d="M2410 3462 c-33 -21 -91 -65 -130 -98 l-70 -60 58 -62 59 -61 87 88
c49 49 105 94 127 101 49 16 49 32 -2 86 -49 53 -54 54 -129 6z"/>
<path d="M3439 3449 c-46 -49 -35 -87 24 -89 8 0 54 -40 103 -89 l89 -89 55
58 c70 73 59 99 -74 189 -126 85 -135 86 -197 20z"/>
<path d="M2600 3305 c-69 -26 -219 -181 -220 -226 0 -7 31 -26 69 -44 38 -19
102 -69 143 -111 l73 -79 67 74 c36 41 98 91 137 112 81 44 84 51 37 123 -76
115 -217 185 -306 151z"/>
<path d="M3200 3269 c-173 -120 -190 -183 -70 -247 49 -26 112 -77 140 -114
l51 -67 69 76 c37 42 100 93 139 114 82 44 85 55 32 122 -127 161 -243 199
-361 116z"/>
<path d="M2114 3159 c-139 -238 -167 -388 -46 -247 37 44 100 97 140 118 87
47 88 62 15 150 l-57 68 -52 -89z"/>
<path d="M3753 3172 c-67 -88 -66 -102 7 -132 33 -13 98 -64 144 -112 128
-132 142 -83 35 126 -104 203 -116 210 -186 118z"/>
<path d="M2208 2935 c-111 -86 -155 -155 -98 -155 17 0 75 -43 129 -96 l100
-95 41 55 c23 31 77 80 120 109 92 61 87 89 -35 173 -94 66 -181 69 -257 9z"/>
<path d="M2910 2957 c-107 -59 -200 -177 -140 -177 17 0 74 -43 128 -95 l99
-95 61 73 c34 40 89 85 122 100 79 35 70 70 -37 151 -89 68 -162 82 -233 43z"/>
<path d="M3493 2898 c-97 -85 -114 -118 -63 -118 17 0 75 -43 129 -95 l99 -95
52 65 c28 35 80 79 116 97 84 43 81 38 55 86 -80 150 -255 177 -388 60z"/>
<path d="M1939 2687 c-56 -147 -56 -292 -1 -361 64 -81 65 -81 129 2 29 38 89
85 133 104 94 42 98 63 27 148 -121 144 -255 193 -288 107z"/>
<path d="M2607 2720 c-63 -25 -227 -188 -227 -224 0 -18 23 -37 50 -44 28 -7
91 -52 141 -100 l92 -88 90 88 c50 49 113 94 139 100 62 16 61 50 -4 126 -100
119 -205 172 -281 142z"/>
<path d="M3238 2700 c-153 -81 -239 -225 -148 -248 28 -7 91 -52 142 -100 l91
-88 87 87 c48 48 111 93 139 100 94 24 6 170 -151 250 -90 46 -71 46 -160 -1z"/>
<path d="M3905 2707 c-149 -74 -246 -232 -155 -255 28 -7 92 -53 144 -103 l94
-90 65 65 66 66 -22 146 c-30 201 -66 233 -192 171z"/>
<path d="M2219 2343 c-86 -54 -153 -118 -137 -129 92 -63 176 -130 208 -167
l40 -47 70 72 c38 39 94 85 125 100 69 36 69 48 0 111 -144 133 -181 140 -306
60z"/>
<path d="M2842 2320 c-122 -97 -123 -104 -27 -160 41 -25 97 -70 123 -102 l48
-58 92 86 c51 48 110 96 131 108 48 27 26 60 -97 149 -104 76 -150 72 -270
-23z"/>
<path d="M3518 2331 c-114 -83 -134 -126 -72 -150 25 -9 81 -53 125 -97 l79
-80 90 84 c50 47 108 94 129 106 48 27 26 60 -97 149 -100 73 -141 71 -254
-12z"/>
<path d="M1860 2234 c0 -55 27 -72 51 -32 8 12 -1 36 -19 54 -29 30 -32 28
-32 -22z"/>
<path d="M4084 2256 c-34 -34 -30 -51 16 -76 36 -19 40 -15 40 39 0 65 -17 76
-56 37z"/>
<path d="M1904 2109 c-79 -56 -63 -277 27 -374 l70 -75 63 71 c34 39 97 89
139 111 88 44 87 42 49 114 -69 133 -258 216 -348 153z"/>
<path d="M2556 2095 c-69 -42 -176 -162 -176 -199 0 -8 29 -28 65 -43 36 -16
100 -64 142 -109 l77 -80 68 76 c38 42 100 91 138 109 82 39 85 53 26 131
-107 145 -224 185 -340 115z"/>
<path d="M3150 2034 c-129 -125 -131 -134 -42 -181 37 -21 101 -71 142 -113
l74 -76 61 69 c34 38 96 87 138 109 109 55 88 116 -85 245 -108 80 -161 70
-288 -53z"/>
<path d="M3868 2088 c-71 -46 -168 -158 -168 -194 0 -7 29 -26 65 -42 67 -29
160 -108 190 -163 15 -26 32 -18 101 52 209 209 50 501 -188 347z"/>
<path d="M2239 1767 c-157 -106 -182 -153 -98 -187 33 -14 91 -61 127 -103
l67 -78 33 51 c25 38 127 118 207 161 21 11 -31 74 -104 126 -98 71 -159 78
-232 30z"/>
<path d="M2910 1777 c-49 -27 -170 -140 -170 -158 0 -8 27 -25 61 -39 33 -14
90 -60 126 -102 l65 -76 56 70 c30 39 86 85 124 103 91 43 86 68 -30 153 -100
74 -162 87 -232 49z"/>
<path d="M3570 1777 c-49 -27 -170 -140 -170 -158 0 -8 27 -25 61 -39 33 -14
91 -61 127 -103 l67 -78 33 51 c25 38 127 118 207 161 22 12 -34 80 -106 130
-91 62 -153 72 -219 36z"/>
<path d="M4083 1657 c-22 -35 -22 -45 0 -59 18 -11 32 -5 41 18 33 85 5 114
-41 41z"/>
<path d="M3900 1516 c-125 -63 -253 -236 -173 -236 15 0 66 -31 114 -69 103
-81 106 -79 201 146 75 179 21 239 -142 159z"/>
<path d="M1911 1521 c-15 -23 77 -254 127 -320 l38 -48 62 52 c34 29 80 58
102 65 75 24 31 113 -105 211 -80 59 -200 80 -224 40z"/>
<path d="M2525 1481 c-162 -117 -178 -175 -63 -230 45 -22 108 -70 139 -109
l57 -69 81 81 c44 45 108 92 141 106 94 39 66 112 -85 221 -102 74 -168 74
-270 0z"/>
<path d="M3187 1483 c-138 -100 -179 -191 -97 -211 28 -7 92 -53 144 -103 l93
-89 82 82 c44 46 106 92 136 102 71 26 69 58 -8 146 -124 141 -226 162 -350
73z"/>
<path d="M2214 1160 c-122 -77 -113 -101 94 -257 l57 -43 74 65 c41 36 91 75
112 87 47 27 24 62 -99 151 -98 71 -122 71 -238 -3z"/>
<path d="M2875 1161 c-134 -85 -151 -128 -70 -176 36 -21 91 -69 124 -106 l58
-69 92 90 c50 50 109 100 131 113 49 28 -26 122 -141 176 -85 41 -86 41 -194
-28z"/>
<path d="M3535 1161 c-122 -77 -152 -131 -90 -163 25 -12 74 -50 109 -83 73
-69 82 -66 236 71 93 84 86 115 -42 189 -99 57 -102 56 -213 -14z"/>
<path d="M2533 898 c-113 -75 -108 -86 63 -138 206 -64 383 -78 345 -28 -173
228 -260 264 -408 166z"/>
<path d="M3230 923 c-72 -44 -190 -174 -190 -210 0 -34 176 -11 365 47 160 49
163 58 42 138 -109 72 -135 75 -217 25z"/>
</g>
</svg>
